<svg id="visual" viewBox="0 0 960 340" width="960" height="340" xmlns="http://www.w3.org/2000/svg" xmlns:xlink="http://www.w3.org/1999/xlink" version="1.1"><path d="M0 206L22.8 210.2C45.7 214.3 91.3 222.7 137 221.3C182.7 220 228.3 209 274 205.8C319.7 202.7 365.3 207.3 411.2 216C457 224.7 503 237.3 548.8 242.5C594.7 247.7 640.3 245.3 686 238.3C731.7 231.3 777.3 219.7 823 217.5C868.7 215.3 914.3 222.7 937.2 226.3L960 230L960 341L937.2 341C914.3 341 868.7 341 823 341C777.3 341 731.7 341 686 341C640.3 341 594.7 341 548.8 341C503 341 457 341 411.2 341C365.3 341 319.7 341 274 341C228.3 341 182.7 341 137 341C91.3 341 45.7 341 22.8 341L0 341Z" fill="#d851e7"></path><path d="M0 225L22.8 228.2C45.7 231.3 91.3 237.7 137 243.7C182.7 249.7 228.3 255.3 274 257C319.7 258.7 365.3 256.3 411.2 250.2C457 244 503 234 548.8 236.5C594.7 239 640.3 254 686 257C731.7 260 777.3 251 823 251.2C868.7 251.3 914.3 260.7 937.2 265.3L960 270L960 341L937.2 341C914.3 341 868.7 341 823 341C777.3 341 731.7 341 686 341C640.3 341 594.7 341 548.8 341C503 341 457 341 411.2 341C365.3 341 319.7 341 274 341C228.3 341 182.7 341 137 341C91.3 341 45.7 341 22.8 341L0 341Z" fill="#a546af"></path><path d="M0 265L22.8 267.5C45.7 270 91.3 275 137 272.2C182.7 269.3 228.3 258.7 274 255.3C319.7 252 365.3 256 411.2 257.8C457 259.7 503 259.3 548.8 257.3C594.7 255.3 640.3 251.7 686 250.3C731.7 249 777.3 250 823 251.8C868.7 253.7 914.3 256.3 937.2 257.7L960 259L960 341L937.2 341C914.3 341 868.7 341 823 341C777.3 341 731.7 341 686 341C640.3 341 594.7 341 548.8 341C503 341 457 341 411.2 341C365.3 341 319.7 341 274 341C228.3 341 182.7 341 137 341C91.3 341 45.7 341 22.8 341L0 341Z" fill="#753a7a"></path><path d="M0 285L22.8 286.3C45.7 287.7 91.3 290.3 137 292C182.7 293.7 228.3 294.3 274 291C319.7 287.7 365.3 280.3 411.2 279.8C457 279.3 503 285.7 548.8 289.2C594.7 292.7 640.3 293.3 686 295.3C731.7 297.3 777.3 300.7 823 297.2C868.7 293.7 914.3 283.3 937.2 278.2L960 273L960 341L937.2 341C914.3 341 868.7 341 823 341C777.3 341 731.7 341 686 341C640.3 341 594.7 341 548.8 341C503 341 457 341 411.2 341C365.3 341 319.7 341 274 341C228.3 341 182.7 341 137 341C91.3 341 45.7 341 22.8 341L0 341Z" fill="#482d49"></path><path d="M0 300L22.8 300C45.7 300 91.3 300 137 300.7C182.7 301.3 228.3 302.7 274 306.5C319.7 310.3 365.3 316.7 411.2 316.7C457 316.7 503 310.3 548.8 309.8C594.7 309.3 640.3 314.7 686 316.7C731.7 318.7 777.3 317.3 823 314.8C868.7 312.3 914.3 308.7 937.2 306.8L960 305L960 341L937.2 341C914.3 341 868.7 341 823 341C777.3 341 731.7 341 686 341C640.3 341 594.7 341 548.8 341C503 341 457 341 411.2 341C365.3 341 319.7 341 274 341C228.3 341 182.7 341 137 341C91.3 341 45.7 341 22.8 341L0 341Z" fill="#1d1d1d"></path></svg>