<svg id="visual" viewBox="0 0 960 340" width="960" height="340" xmlns="http://www.w3.org/2000/svg" xmlns:xlink="http://www.w3.org/1999/xlink" version="1.1"><path d="M0 51L22.8 49C45.7 47 91.3 43 137 43.5C182.7 44 228.3 49 274 51.5C319.7 54 365.3 54 411.2 60C457 66 503 78 548.8 80.8C594.7 83.7 640.3 77.3 686 73.8C731.7 70.3 777.3 69.7 823 68.2C868.7 66.7 914.3 64.3 937.2 63.2L960 62L960 0L937.2 0C914.3 0 868.7 0 823 0C777.3 0 731.7 0 686 0C640.3 0 594.7 0 548.8 0C503 0 457 0 411.2 0C365.3 0 319.7 0 274 0C228.3 0 182.7 0 137 0C91.3 0 45.7 0 22.8 0L0 0Z" fill="#d851e7"></path><path d="M0 51L22.8 54.2C45.7 57.3 91.3 63.7 137 67.2C182.7 70.7 228.3 71.3 274 72C319.7 72.7 365.3 73.3 411.2 69C457 64.7 503 55.3 548.8 50C594.7 44.7 640.3 43.3 686 45.5C731.7 47.7 777.3 53.3 823 52.2C868.7 51 914.3 43 937.2 39L960 35L960 0L937.2 0C914.3 0 868.7 0 823 0C777.3 0 731.7 0 686 0C640.3 0 594.7 0 548.8 0C503 0 457 0 411.2 0C365.3 0 319.7 0 274 0C228.3 0 182.7 0 137 0C91.3 0 45.7 0 22.8 0L0 0Z" fill="#9434b5"></path><path d="M0 54L22.8 52C45.7 50 91.3 46 137 40.5C182.7 35 228.3 28 274 29.5C319.7 31 365.3 41 411.2 44.8C457 48.7 503 46.3 548.8 47C594.7 47.7 640.3 51.3 686 49C731.7 46.7 777.3 38.3 823 34.7C868.7 31 914.3 32 937.2 32.5L960 33L960 0L937.2 0C914.3 0 868.7 0 823 0C777.3 0 731.7 0 686 0C640.3 0 594.7 0 548.8 0C503 0 457 0 411.2 0C365.3 0 319.7 0 274 0C228.3 0 182.7 0 137 0C91.3 0 45.7 0 22.8 0L0 0Z" fill="#551883"></path><path d="M0 24L22.8 25.3C45.7 26.7 91.3 29.3 137 26.2C182.7 23 228.3 14 274 9.3C319.7 4.7 365.3 4.3 411.2 4.8C457 5.3 503 6.7 548.8 8.2C594.7 9.7 640.3 11.3 686 12.5C731.7 13.7 777.3 14.3 823 13.8C868.7 13.3 914.3 11.7 937.2 10.8L960 10L960 0L937.2 0C914.3 0 868.7 0 823 0C777.3 0 731.7 0 686 0C640.3 0 594.7 0 548.8 0C503 0 457 0 411.2 0C365.3 0 319.7 0 274 0C228.3 0 182.7 0 137 0C91.3 0 45.7 0 22.8 0L0 0Z" fill="#1a0052"></path></svg>