<svg id="visual" viewBox="0 0 960 540" width="960" height="540" xmlns="http://www.w3.org/2000/svg" xmlns:xlink="http://www.w3.org/1999/xlink" version="1.1"><path d="M0 120L16 121.7C32 123.3 64 126.7 96 125.8C128 125 160 120 192 120.3C224 120.7 256 126.3 288 127C320 127.7 352 123.3 384 118.2C416 113 448 107 480 103C512 99 544 97 576 98.8C608 100.7 640 106.3 672 108C704 109.7 736 107.3 768 106.7C800 106 832 107 864 108.3C896 109.7 928 111.3 944 112.2L960 113L960 0L944 0C928 0 896 0 864 0C832 0 800 0 768 0C736 0 704 0 672 0C640 0 608 0 576 0C544 0 512 0 480 0C448 0 416 0 384 0C352 0 320 0 288 0C256 0 224 0 192 0C160 0 128 0 96 0C64 0 32 0 16 0L0 0Z" fill="#76ceee"></path><path d="M0 105L16 102.5C32 100 64 95 96 94.7C128 94.3 160 98.7 192 94.3C224 90 256 77 288 76.3C320 75.7 352 87.3 384 89.8C416 92.3 448 85.7 480 84C512 82.3 544 85.7 576 88.7C608 91.7 640 94.3 672 92.8C704 91.3 736 85.7 768 84.7C800 83.7 832 87.3 864 90.7C896 94 928 97 944 98.5L960 100L960 0L944 0C928 0 896 0 864 0C832 0 800 0 768 0C736 0 704 0 672 0C640 0 608 0 576 0C544 0 512 0 480 0C448 0 416 0 384 0C352 0 320 0 288 0C256 0 224 0 192 0C160 0 128 0 96 0C64 0 32 0 16 0L0 0Z" fill="#3b9bcf"></path><path d="M0 71L16 69.8C32 68.7 64 66.3 96 62.5C128 58.7 160 53.3 192 52.8C224 52.3 256 56.7 288 59.8C320 63 352 65 384 65.3C416 65.7 448 64.3 480 65C512 65.7 544 68.3 576 69.3C608 70.3 640 69.7 672 71.8C704 74 736 79 768 79.7C800 80.3 832 76.7 864 73.5C896 70.3 928 67.7 944 66.3L960 65L960 0L944 0C928 0 896 0 864 0C832 0 800 0 768 0C736 0 704 0 672 0C640 0 608 0 576 0C544 0 512 0 480 0C448 0 416 0 384 0C352 0 320 0 288 0C256 0 224 0 192 0C160 0 128 0 96 0C64 0 32 0 16 0L0 0Z" fill="#0669ad"></path><path d="M0 46L16 44.3C32 42.7 64 39.3 96 41C128 42.7 160 49.3 192 50.8C224 52.3 256 48.7 288 46.7C320 44.7 352 44.3 384 45.5C416 46.7 448 49.3 480 52.2C512 55 544 58 576 57.8C608 57.7 640 54.3 672 50.3C704 46.3 736 41.7 768 38.3C800 35 832 33 864 37.3C896 41.7 928 52.3 944 57.7L960 63L960 0L944 0C928 0 896 0 864 0C832 0 800 0 768 0C736 0 704 0 672 0C640 0 608 0 576 0C544 0 512 0 480 0C448 0 416 0 384 0C352 0 320 0 288 0C256 0 224 0 192 0C160 0 128 0 96 0C64 0 32 0 16 0L0 0Z" fill="#0b3783"></path><path d="M0 38L16 37C32 36 64 34 96 30.2C128 26.3 160 20.7 192 18.5C224 16.3 256 17.7 288 21.3C320 25 352 31 384 30C416 29 448 21 480 18.8C512 16.7 544 20.3 576 20.7C608 21 640 18 672 18.5C704 19 736 23 768 25.7C800 28.3 832 29.7 864 28.8C896 28 928 25 944 23.5L960 22L960 0L944 0C928 0 896 0 864 0C832 0 800 0 768 0C736 0 704 0 672 0C640 0 608 0 576 0C544 0 512 0 480 0C448 0 416 0 384 0C352 0 320 0 288 0C256 0 224 0 192 0C160 0 128 0 96 0C64 0 32 0 16 0L0 0Z" fill="#1a0052"></path></svg>